HIERARCHY
ROOT Hips
{
  OFFSET 0 0 0
  CHANNELS 6 Xposition Yposition Zposition Zrotation Xrotation Yrotation
  JOINT Spine
  {
    OFFSET 0 9.9235 -1.22729
    CHANNELS 3 Zrotation Xrotation Yrotation
    JOINT Spine1
    {
      OFFSET -9.9969e-05 11.6454 -1.4223
      CHANNELS 3 Zrotation Xrotation Yrotation
      JOINT Spine2
      {
        OFFSET 9.98118e-05 13.3602 -1.6265
        CHANNELS 3 Zrotation Xrotation Yrotation
        JOINT Neck
        {
          OFFSET 0 15.0325 0.7929
          CHANNELS 3 Zrotation Xrotation Yrotation
          JOINT Head
          {
            OFFSET 0 10.3218 3.1424
            CHANNELS 3 Zrotation Xrotation Yrotation
            End Site
            {
              OFFSET 0.0002 18.4747 6.6364
            }
          }
        }
        JOINT LeftShoulder
        {
          OFFSET 6.1058 9.1104 0.7056
          CHANNELS 3 Zrotation Xrotation Yrotation
          JOINT LeftArm
          {
            OFFSET 12.655 -0.265904 -2.60091
            CHANNELS 3 Zrotation Xrotation Yrotation
            JOINT LeftForeArm
            {
              OFFSET 27.4047 0 0
              CHANNELS 3 Zrotation Xrotation Yrotation
              JOINT LeftHand
              {
                OFFSET 27.6145 -1.98104e-05 0
                CHANNELS 3 Zrotation Xrotation Yrotation
                End Site
                {
                  OFFSET 12.7755 0 0
                }
              }
            }
          }
        }
        JOINT RightShoulder
        {
          OFFSET -6.1057 9.1105 0.7056
          CHANNELS 3 Zrotation Xrotation Yrotation
          JOINT RightArm
          {
            OFFSET -12.655 -0.265999 -2.6009
            CHANNELS 3 Zrotation Xrotation Yrotation
            JOINT RightForeArm
            {
              OFFSET -27.4047 0 0
              CHANNELS 3 Zrotation Xrotation Yrotation
              JOINT RightHand
              {
                OFFSET -27.6145 0 0
                CHANNELS 3 Zrotation Xrotation Yrotation
                End Site
                {
                  OFFSET -12.7755 0 0
                }
              }
            }
          }
        }
      }
    }
  }
  JOINT RightUpLeg
  {
    OFFSET -9.12449 -6.6564 -0.0554004
    CHANNELS 3 Zrotation Xrotation Yrotation
    JOINT RightLeg
    {
      OFFSET -0.245231 -40.5954 -0.51698
      CHANNELS 3 Zrotation Xrotation Yrotation
      JOINT RightFoot
      {
        OFFSET 0.244701 -42.0479 -2.0602
        CHANNELS 3 Zrotation Xrotation Yrotation
        JOINT RightToe
        {
          OFFSET -0.373402 -10.4922 12.6407
          CHANNELS 3 Zrotation Xrotation Yrotation
          End Site
          {
            OFFSET 0 0 9.9925
          }
        }
      }
    }
  }
  JOINT LeftUpLeg
  {
    OFFSET 9.1245 -6.6564 -0.055401
    CHANNELS 3 Zrotation Xrotation Yrotation
    JOINT LeftLeg
    {
      OFFSET 0.245022 -40.5954 -0.518725
      CHANNELS 3 Zrotation Xrotation Yrotation
      JOINT LeftFoot
      {
        OFFSET -0.244696 -42.048 -2.0576
        CHANNELS 3 Zrotation Xrotation Yrotation
        JOINT LeftToe
        {
          OFFSET 0.373399 -10.4922 12.6407
          CHANNELS 3 Zrotation Xrotation Yrotation
          End Site
          {
            OFFSET 0 0 9.9925
          }
        }
      }
    }
  }
}
MOTION
Frames: 6
Frame Time:	0.0333333
 -0.05123   97.9313 -0.299134   2.1419 -5.44023 -15.7345 -0.986492   7.03234 -0.870057 -0.136518   2.12375 -0.552956 -0.131378   2.12789 -0.542347  -8.8929  3.22341 -2.78478 -65.0766  9.19842 -5.15049  6.87347e-17 -1.27222e-14     -21.7144 -4.76354  16.2124 -3.45308 11.4102 4.03975 10.5716  71.8622 -23.0107  3.69164  3.36809e-15 -3.18055e-15      15.6474 8.01661   28.78 2.69117     1.21789 -0.00385609     2.46531 -4.65949 -4.83734  13.9065  2.96068 -6.45751  8.40391 1.18003 15.2618 1.05693  -6.02443  -3.59973 0.0319529 -2.92662e-17      1.27803  1.59067e-15  -1.61914 -0.821062  -11.0247 -0.643443   21.0821  -9.61672 0.405985 -16.2466 -3.39249 0.000338584   0.0816697  3.1737e-15 
-0.0518291    97.2718  -0.019653  3.49146 -5.70177 -15.9199  -1.99497    7.0974 -0.480778 -0.971299   1.66261  -1.19237 -0.292306   1.86675 -0.842918  -8.1097  3.54096 -3.76964 -65.2684  9.63754 -4.95464  0.254069 -0.427467  -21.9755 -3.49822  15.9815 -3.18523 11.6175 4.13249 10.4144  71.4552 -22.3746  2.16384 -0.804306 0.0349031   17.0783 8.04485 28.3423 3.12605 1.64962 0.16181  2.7843 -4.54948 -4.57973  14.0597  1.82095 -7.04627  8.91115 0.811561  16.6722  2.42109 -6.46096 -4.97031 0.278257 0.00862357  -0.526382   0.246436  -3.28044 -0.234352  -10.1866 -1.68405  20.3068 -9.47055 0.439206  -16.869 -1.76555 0.0446574 -0.213589 -0.243762 
-0.244345   96.4046  0.369426  3.33852 -6.06699 -15.6197  -1.95591   7.23962 -0.388373 -1.35413   1.5347 -1.83742 -0.503191   1.85478  -1.25512 -7.82946  3.64823 -4.65128 -65.1273  10.3739 -5.23303   0.34507 -0.755356  -22.9662 -2.99765  15.3675 -2.04453 11.8065 4.21888 10.2279  70.3312 -21.5939 0.572291  -1.41914 0.0008316   19.4186   8.876 27.4562 3.28598  2.00479 0.440971  3.01303 -4.57841 -4.52493  14.3766  2.39541 -7.21501  9.37404 0.863961  18.0811  3.30997 -6.81473 -6.32739 0.377112 -0.0248057   -1.54946   0.460397   -3.5617 -0.135658  -9.79348 -1.71277  22.6362 -9.41767  2.26848 -20.2134 -1.82608 -2.42526  5.48224  2.58772 
-0.434123   96.3146   1.03404  3.64083 -6.58483 -15.7447  -2.58078   7.24174 -0.315744 -1.98073  1.32118 -2.21372 -0.834209   1.96486  -1.50993 -7.21899  3.93935 -5.30772 -64.3575  11.5567 -7.01836  0.362747 -0.929603  -22.8507 -3.02124  14.4799 -1.65685 11.9482 4.46893 9.98569   68.8852  -20.4064 -0.660869   -1.81045 -0.0426183    22.4481 10.3325 26.0529 3.41027  2.17573 0.389786  3.28416 -4.71304 -4.52956  14.8587  2.06115 -7.36089  9.53236 0.918324  19.6286  2.78415 -6.82554 -7.68528 0.445762 -0.0346688   -2.44015   0.638618 -3.97935 0.567717 -9.76353 -1.95863  23.0463 -8.91694  2.52184 -20.7891 -2.08317 -3.66108  4.29578  4.07939 
-0.416813   96.3045   1.64447  3.97288 -6.85927 -16.3808  -3.06991   7.31855 -0.306946 -2.61941  1.09851 -2.59119 -1.20155  1.94874 -1.73846  -6.5048  4.13921 -6.02456 -62.3548  13.1479 -10.5891 0.389993 -1.03524 -22.0186 -2.66374  13.3146 -2.79459 11.9595 4.55679 9.90653  66.3313  -19.023 -1.19303  -2.12068 -0.129618   26.2751 11.1788 23.9428 3.69522  2.30506 0.381597  3.53908 -4.88425 -4.67961  15.4779  1.59349 -8.44864  9.71024 0.944229   22.061 0.278194 -5.12915 -9.71364 0.627515 -0.0184814   -3.17804   0.744916 -4.50164   0.9868  -9.6449 -2.33607  23.1474 -8.17117  2.88468 -21.1703 -2.04265 -4.91627  3.62988  5.59095 
-0.217788   96.3519   2.21243   4.4105 -6.98741 -17.0914 -3.57093  7.50117   -0.248 -3.25683 0.922845 -3.03222 -1.49063  1.90338 -1.99304 -5.74203  4.26292 -6.75025 -58.7148  14.8092 -15.3652  0.53595 -1.17405 -22.4118 -1.18032  11.8847 -4.27795 12.0552 4.58483 10.1003   62.3837  -17.6686 -0.890835  -2.42485 -0.243445   30.8811 10.4478 21.2026 4.08111  2.41276 0.476359   3.8335 -4.89849  -4.7804  16.2609 0.917097 -10.5474  9.98748 0.895768  25.0668 -2.97253 -3.04932  -11.121 0.975637 0.0433641  -4.76623  0.781014 -5.17611  1.23727 -9.51272 -2.75915  23.0411 -7.08488  3.20968 -21.5465 -2.23381 -5.63184  3.52751   8.1383 
